    <svg xmlns="http://www.w3.org/2000/svg" x="0" y="0" enable-background="new 0 0 292.1 50.3" version="1.1"
      viewBox="0 0 292.1 50.3" xml:space="preserve" class="logo sm:mx-auto" color="white">
      <linearGradient x1="2" x2="288.631" y1="24.747" y2="24.747" gradientUnits="userSpaceOnUse">
        <stop offset="0" stop-color="#005AAB"></stop>
        <stop offset="0.347" stop-color="#0A6AC0"></stop>
        <stop offset="0.689" stop-color="#1175CD"></stop>
        <stop offset="1" stop-color="#1378D2"></stop>
      </linearGradient>
      <path
        d="M70.8 1.2s-6.7 19.4-8.1 23c-1.3-3.1-8.2-23-8.2-23H43l19.8 48.3L82.6 1.2H70.8zm203.5 29.3l-.4-.5c3.5-1.6 6.2-4.5 7.6-8 .7-1.7 1-3.5 1-5.5 0-3.2-1-6.1-2.7-8.6-.8-1.2-1.8-2.3-3-3.2-.7-.5-1.6-1-2.5-1.4-.2-.1-.5-.2-.7-.3 0 0-.1 0-.1-.1-1.4-.6-3-1-4.8-1.2-.4-.1-.8-.1-1.2-.2-.4 0-.9-.1-1.3-.1-1.2-.1-2.5-.2-3.9-.2H246.7v47h10.8V12h6c2 0 3.8.8 5.1 2.1 1.1 1.1 1.9 2.6 2.1 4.2v.7c0 2.1-.8 4-2.1 5.4-1.6 1.4-3.6 2.2-5.9 2.3h-4.4c.6.9 1.5 2.2 2.8 3.9l.2.2c.4.5.8 1 1.2 1.6 5.3 7 13.2 16.8 13.2 16.8h13s-9.8-12.3-14.3-17.9M184 1.2h-30.4V12h9.8v36.2h10.8V12h9.8V1.2zm38.2 0v27.3c0 10.1-4.8 10.1-6.9 10.1-2.1 0-6.9 0-6.9-10.1V1.2h-11.8v29.1c0 11.2 7.5 19 18.1 19 10.7 0 18.1-7.8 18.1-19V1.2h-10.6zM24.5 0L2 49.2h12.4l2.5-6.9h15.3l2.5 6.9h12.4L24.5 0zm0 20.9l4.1 11.7h-8.2l4.1-11.7zM131.2 0l-22.5 49.2H121l2.5-6.9h15.3l2.5 6.9h12.4L131.2 0zm-.1 20.9l4.1 11.7H127l4.1-11.7zM91 1.2h10.8v47H91v-47z"
        class="st0" fill="#FAFAFA"></path>
    </svg>