<svg width="24" height="20" viewBox="0 0 24 20" fill="none" xmlns="http://www.w3.org/2000/svg">
<path d="M23.3805 7.82949C23.3671 7.76406 23.3474 7.70023 23.3218 7.63899L21.1058 2.18609C20.5949 0.926165 19.352 0.111572 17.9378 0.111572H6.33692C4.92391 0.111572 3.67982 0.926165 3.16952 2.18609L0.951162 7.63899C0.900745 7.76199 0.874985 7.89465 0.875496 8.02866V18.9146C0.875496 19.1771 0.974372 19.4288 1.15037 19.6144C1.32637 19.8 1.56508 19.9043 1.81399 19.9043H3.69097C3.93987 19.9043 4.17858 19.8 4.35458 19.6144C4.53058 19.4288 4.62946 19.1771 4.62946 18.9146V17.925H19.6453V18.9146C19.6453 19.1771 19.7442 19.4288 19.9202 19.6144C20.0962 19.8 20.3349 19.9043 20.5838 19.9043H22.4608C22.7097 19.9043 22.9484 19.8 23.1244 19.6144C23.3004 19.4288 23.3993 19.1771 23.3993 18.9146V8.02866C23.3993 7.96177 23.3931 7.89505 23.3805 7.82949ZM5.56795 13.9665C5.19671 13.9665 4.83382 13.8504 4.52515 13.6329C4.21648 13.4154 3.97591 13.1063 3.83384 12.7446C3.69178 12.383 3.65461 11.985 3.72703 11.6011C3.79946 11.2171 3.97822 10.8644 4.24072 10.5876C4.50322 10.3108 4.83767 10.1223 5.20177 10.046C5.56586 9.96959 5.94326 10.0088 6.28624 10.1586C6.62921 10.3084 6.92235 10.5621 7.1286 10.8876C7.33484 11.2131 7.44493 11.5957 7.44493 11.9872C7.44493 12.5121 7.24717 13.0156 6.89517 13.3868C6.54317 13.7579 6.06575 13.9665 5.56795 13.9665ZM18.7068 13.9665C18.3356 13.9665 17.9727 13.8504 17.664 13.6329C17.3553 13.4154 17.1148 13.1063 16.9727 12.7446C16.8306 12.383 16.7935 11.985 16.8659 11.6011C16.9383 11.2171 17.1171 10.8644 17.3796 10.5876C17.6421 10.3108 17.9765 10.1223 18.3406 10.046C18.7047 9.96959 19.0821 10.0088 19.4251 10.1586C19.7681 10.3084 20.0612 10.5621 20.2675 10.8876C20.4737 11.2131 20.5838 11.5957 20.5838 11.9872C20.5838 12.5121 20.386 13.0156 20.034 13.3868C19.682 13.7579 19.2046 13.9665 18.7068 13.9665ZM3.23697 7.03902L4.89282 2.96605C5.10515 2.44278 5.68526 2.09084 6.33692 2.09084H17.9378C18.5889 2.09084 19.1696 2.44278 19.3819 2.96605L21.0378 7.03902H3.23697Z" fill="white"/>
</svg>
