<svg width="22" height="23" viewBox="0 0 22 23" fill="none" xmlns="http://www.w3.org/2000/svg">
<path fill-rule="evenodd" clip-rule="evenodd" d="M2.47742 7.71558H4.03078V14.5708H2.47742V7.71558Z" fill="#D8D8D8"/>
<path fill-rule="evenodd" clip-rule="evenodd" d="M18.011 7.71558H19.5643V14.5708H18.011V7.71558Z" fill="#D8D8D8"/>
<path fill-rule="evenodd" clip-rule="evenodd" d="M0.535645 10.0008L11.0208 5.81152L21.5061 10.0008V13.4284L11.0208 11.5242L0.535645 13.4284V10.0008Z" fill="white"/>
<path fill-rule="evenodd" clip-rule="evenodd" d="M8.69086 2.76414C8.69086 1.5025 9.73667 0.479736 11.0209 0.479736C12.3078 0.479736 13.3509 1.49959 13.3509 2.76414V21.0453H8.69086V2.76414Z" fill="white"/>
<path fill-rule="evenodd" clip-rule="evenodd" d="M12.5743 2.76483C12.5743 1.92349 11.8788 1.24146 11.0209 1.24146C10.163 1.24146 9.46753 1.92349 9.46753 2.76483H12.5743Z" fill="white"/>
<path fill-rule="evenodd" clip-rule="evenodd" d="M6.36084 19.3836L11.2151 17.9985L16.0694 19.3836V22.1878C16.0694 22.1878 13.6422 21.2377 11.2151 21.2377C8.78797 21.2377 6.36084 22.1878 6.36084 22.1878V19.3836Z" fill="white"/>
</svg>
