<svg width="30" height="29" viewBox="0 0 30 29" fill="none" xmlns="http://www.w3.org/2000/svg">
<path d="M21.8935 0.720215C22.8778 0.720215 23.8048 0.90062 24.6746 1.26143C25.5443 1.62224 26.3054 2.11426 26.9577 2.73747C27.6101 3.36069 28.1251 4.08778 28.5028 4.91874C28.8804 5.74969 29.0693 6.63532 29.0693 7.57561V21.2864C29.0693 22.2267 28.8804 23.1178 28.5028 23.9597C28.1251 24.8016 27.6101 25.5341 26.9577 26.1574C26.3054 26.7806 25.5443 27.2726 24.6746 27.6334C23.8048 27.9942 22.8778 28.1746 21.8935 28.1746H7.50775C6.52352 28.1746 5.59652 27.9942 4.72673 27.6334C3.85695 27.2726 3.09589 26.7806 2.44355 26.1574C1.79121 25.5341 1.27621 24.8016 0.898536 23.9597C0.520866 23.1178 0.332031 22.2267 0.332031 21.2864V7.57561C0.332031 6.63532 0.520866 5.74969 0.898536 4.91874C1.27621 4.08778 1.79121 3.36069 2.44355 2.73747C3.09589 2.11426 3.85695 1.62224 4.72673 1.26143C5.59652 0.90062 6.52352 0.720215 7.50775 0.720215H21.8935ZM21.8935 12.7254H16.5032V7.57561H12.8981V12.7254H7.50775V16.1367H12.8981V21.2864H16.5032V16.1367H21.8935V12.7254Z" fill="white"/>
</svg>
